<svg xmlns="http://www.w3.org/2000/svg" width="430.723" height="183.693" viewBox="0 0 430.723 183.693">
  <g id="logo-darkmode" transform="translate(-1090.737 -885.41)">
    <path id="Path_1" data-name="Path 1" d="M1097.251,973.907l52.61.126v-15.6s1.764-11.3,12.622-10.736,11.026,12.8,11.026,12.8v28.212s3.186,10.477,13.2,10.933,12.745-10.933,12.745-10.933V946.318s-7.233-21.833,10.776-20.718,12.6,16.939,12.718,20.718c.317,10.023,0,62.95,0,62.95s4.015,9.562,11.027,9.4,11.731-9.4,11.731-9.4v-90.68s-.591-14.675,12.955-14.356,12.255,14.356,12.255,14.356v120.443" transform="translate(-1 4)" fill="none" stroke="#ff6502" stroke-linecap="round" stroke-linejoin="round" stroke-width="11"/>
    <path id="Path_2" data-name="Path 2" d="M1270.947,973.907l-52.61.126v-15.6s-1.764-11.3-12.622-10.736-11.026,12.8-11.026,12.8v28.212s-3.186,10.477-13.2,10.933-12.745-10.933-12.745-10.933V946.318s7.233-21.833-10.776-20.718-12.6,16.939-12.718,20.718c-.317,10.023,0,62.95,0,62.95s-4.015,9.562-11.027,9.4-11.731-9.4-11.731-9.4v-90.68s.591-14.675-12.955-14.356-12.255,14.356-12.255,14.356v120.443" transform="translate(245 4)" fill="none" stroke="#ff6502" stroke-linecap="round" stroke-linejoin="round" stroke-width="11"/>
    <path id="Path_3" data-name="Path 3" d="M1318.2,973.911v68.9s-.645,12.209-12.9,12.773-14.4-12.773-14.4-12.773v-159.9" transform="translate(0 8)" fill="none" stroke="#ff6502" stroke-linecap="round" stroke-linejoin="round" stroke-width="11"/>
    <path id="Intersection_1" data-name="Intersection 1" d="M11.988,84.669a5.065,5.065,0,0,1-3.649-1.354A4.648,4.648,0,0,1,6.923,79.8a4.338,4.338,0,0,1,2.355-3.943,5.506,5.506,0,0,1-1.813-1.806,4.793,4.793,0,0,1-.543-2.381,4.254,4.254,0,0,1,1.416-3.442,6.155,6.155,0,0,1,4.077-1.2H24v4.956H13.16a2.86,2.86,0,0,0-1.067.128.519.519,0,0,0-.263.519q0,.732,1.245.732H24v4.956H13.16a2.758,2.758,0,0,0-1.062.134.53.53,0,0,0-.268.526q0,.732,1.33.732H24v4.956ZM12,59.369V54.8h6.872q1.038,0,1.038-.867t-1.038-.854H12V48.517h6.787a5.533,5.533,0,0,1,4,1.575,5.482,5.482,0,0,1-.263,8.044,6.216,6.216,0,0,1-4.1,1.233Zm7.5-17.354v-.208a2.2,2.2,0,0,0-.458-1.568,2.419,2.419,0,0,0-1.6-.544,11.292,11.292,0,0,1-2.625-.348,3.806,3.806,0,0,1-1.5-1.019A5.117,5.117,0,0,1,12,34.606v-1.38h4.81a1.869,1.869,0,0,0,.36,1.325,2.372,2.372,0,0,0,1.422.458,6.013,6.013,0,0,1,4.981,2.734,7.207,7.207,0,0,1,.757,3.638v.635ZM11.83,26.737V22.172H24v4.566Zm-4.779-.689a2.3,2.3,0,0,1,0-3.21,2.16,2.16,0,0,1,3.107-.037,2.513,2.513,0,0,1,0,3.283,2.159,2.159,0,0,1-3.107-.036ZM13.4,13.278A6.17,6.17,0,0,1,11.573,8.8a6.147,6.147,0,0,1,1.441-4.028A6.114,6.114,0,0,1,16.688,2.6l.171,4.627a1.83,1.83,0,0,0-.781,1.514,1.714,1.714,0,0,0,.513,1.282,1.778,1.778,0,0,0,1.293.5,1.82,1.82,0,0,0,1.331-.531,1.788,1.788,0,0,0,.537-1.325A1.722,1.722,0,0,0,18.4,7.016l-.171-4.529a6.44,6.44,0,0,1,4.333,1.966,6,6,0,0,1,1.7,4.309A6.131,6.131,0,0,1,22.388,13.3a6.255,6.255,0,0,1-4.577,1.85A5.946,5.946,0,0,1,13.4,13.278Z" transform="translate(1301 883)" fill="#fff"/>
  </g>
</svg>
